<svg width="36" height="36" fill="none" xmlns="http://www.w3.org/2000/svg"><path fill-rule="evenodd" clip-rule="evenodd" d="M35.88 18c0 9.665-7.836 17.5-17.5 17.5C8.713 35.5.88 27.665.88 18S8.713.5 18.38.5c9.664 0 17.5 7.835 17.5 17.5zM16.323 33.466V26.21h-3.859a.1.1 0 01-.1-.1v-4.996a.1.1 0 01.1-.1h3.859v-2.753c0-4.49 4.557-6.08 6.586-6.08h2.92a.1.1 0 01.1.1v4.461a.1.1 0 01-.1.1H24.01c-.75 0-2.527.693-2.527 2.028v2.144h4.345a.1.1 0 01.1.111l-.585 4.997a.1.1 0 01-.1.088h-3.76v7.08c7.128-1.44 12.495-7.738 12.495-15.291 0-8.616-6.984-15.6-15.6-15.6-8.615 0-15.6 6.984-15.6 15.6 0 7.919 5.9 14.46 13.545 15.466zm1.6-.023v-8.832h-3.958v-1.996h3.958v-4.353c0-1.61.781-2.678 1.839-3.406 1.12-.77 2.45-1.073 3.147-1.073h1.42v1.46c-.97 0-1.89.237-2.718.761-.751.474-1.728 1.408-1.728 2.867v3.744h4.26l-.234 1.996h-4.026v8.832h-1.96z" fill="#343A32"/></svg>