<svg width="37" height="30" fill="none" xmlns="http://www.w3.org/2000/svg"><path fill-rule="evenodd" clip-rule="evenodd" d="M25.204.429c-3.676 0-5.893 1.923-6.916 4.219-.64 1.44-.871 3.107-.562 4.66C11.866 8.69 6.669 6.49 3.183 1.9c-.26-.342-.813-.247-.91.172-.79 3.43-.902 7.043 2.494 9.657-.776-.165-1.705-.561-2.59-.94-.21-.089-.415-.177-.617-.26a.446.446 0 00-.589.593c1.394 3.277 3.448 5.402 6.74 6.927-1.075.309-2.527.35-3.956.22-.405-.037-.684.377-.428.694 1.422 1.762 4.435 3.574 7.332 3.982-3.052 1.67-6.255 2.577-9.66 3.008-.47.06-.615.666-.201.896 6.451 3.595 15.201 3.72 21.553-.169 4.826-2.954 7.754-7.792 9.301-12.435.47-1.407.891-3.639.799-5.9a.512.512 0 01.179-.413c.818-.692 3.612-3.084 3.79-3.6a.075.075 0 00-.057-.1c-.256-.054-1.133.241-2.15.522a25.46 25.46 0 01-1.948.445c1.254-1.395 2.944-2.815 2.597-3.344a.138.138 0 00-.091-.064c-.406-.067-2.215.607-3.675 1.045a.518.518 0 01-.54-.17 6.125 6.125 0 00-.481-.506C28.905 1.063 27.293.43 25.204.43zM3.642 5.697c4.485 4.131 10.587 5.367 16.483 5.778.407.028.669-.42.466-.774-.945-1.65-1.384-3.2-.476-5.239.723-1.622 2.253-3.033 5.089-3.033 1.66 0 2.757.49 3.503 1.19.765.717 1.255 1.742 1.52 2.96.534 2.462.073 5.399-.472 7.034-1.452 4.357-4.149 8.73-8.448 11.362-3.55 2.174-8.302 3.226-14.573 1.972 3.514-.903 7.132-2.838 9.404-5.113.354-.354-.039-.918-.53-.818-2.508.51-5.427.128-7.898-1.213 1.669-.174 3.219-.451 4.737-.931.512-.162.386-.938-.141-1.039-2.671-.51-5.364-1.95-8.067-4.526 1.545.537 3.962.901 6.202.636.51-.06.509-.72.021-.88-3.362-1.106-6.715-3.43-6.82-7.366z" fill="#343A32"/></svg>